<?xml version="1.0" encoding="UTF-8"?>
<svg width="1440px" height="130px" viewBox="0 0 1440 130" version="1.1" xmlns="http://www.w3.org/2000/svg" xmlns:xlink="http://www.w3.org/1999/xlink">
    <title>Group 4</title>
    <g id="Page-1" stroke="none" stroke-width="1" fill="none" fill-rule="evenodd">
        <g id="Group-4">
            <rect id="Rectangle" x="0" y="0" width="1440" height="130"></rect>
            <g id="Group-3" transform="translate(55.000000, 40.000000)">
                <g id="Group-2" transform="translate(1120.000000, 0.000000)">
                    <rect id="Rectangle" fill="#FFFFFF" x="0" y="0" width="152" height="50" rx="25"></rect>
                    <g id="Get-in-touch" transform="translate(28.480000, 19.240000)" fill="#000000" fill-rule="nonzero">
                        <path d="M5.392,12 C4.64533333,12 3.94533333,11.868 3.292,11.604 C2.63866667,11.34 2.06533333,10.952 1.572,10.44 C1.07866667,9.928 0.693333333,9.3 0.416,8.556 C0.138666667,7.812 -7.10542736e-15,6.96 -7.10542736e-15,6 C-7.10542736e-15,4.74133333 0.234666667,3.66533333 0.704,2.772 C1.17333333,1.87866667 1.816,1.19333333 2.632,0.716 C3.448,0.238666667 4.368,0 5.392,0 C6.81066667,0 7.93466667,0.329333333 8.764,0.988 C9.59333333,1.64666667 10.1546667,2.57066667 10.448,3.76 L8.48,4.072 C8.26133333,3.38933333 7.904,2.844 7.408,2.436 C6.912,2.028 6.28,1.824 5.512,1.824 C4.73866667,1.81333333 4.096,1.98133333 3.584,2.328 C3.072,2.67466667 2.68666667,3.16266667 2.428,3.792 C2.16933333,4.42133333 2.04,5.15733333 2.04,6 C2.04,6.84266667 2.168,7.57466667 2.424,8.196 C2.68,8.81733333 3.06533333,9.30133333 3.58,9.648 C4.09466667,9.99466667 4.73866667,10.1733333 5.512,10.184 C6.09333333,10.1893333 6.60266667,10.084 7.04,9.868 C7.47733333,9.652 7.83466667,9.324 8.112,8.884 C8.38933333,8.444 8.576,7.89333333 8.672,7.232 L6.64,7.232 L6.64,5.72 L10.72,5.72 C10.7306667,5.80533333 10.7386667,5.93066667 10.744,6.096 C10.7493333,6.26133333 10.752,6.36 10.752,6.392 C10.752,7.48 10.5373333,8.44666667 10.108,9.292 C9.67866667,10.1373333 9.064,10.8 8.264,11.28 C7.464,11.76 6.50666667,12 5.392,12 Z" id="G"></path>
                        <path d="M16.28,12 C15.4053333,12 14.6373333,11.8106667 13.976,11.432 C13.3146667,11.0533333 12.7986667,10.528 12.428,9.856 C12.0573333,9.184 11.872,8.41066667 11.872,7.536 C11.872,6.592 12.0533333,5.772 12.416,5.076 C12.7786667,4.38 13.2826667,3.84 13.928,3.456 C14.5733333,3.072 15.32,2.88 16.168,2.88 C17.064,2.88 17.8253333,3.08933333 18.452,3.508 C19.0786667,3.92666667 19.544,4.51733333 19.848,5.28 C20.152,6.04266667 20.2666667,6.94133333 20.192,7.976 L18.28,7.976 L18.28,7.272 C18.2746667,6.33333333 18.1093333,5.648 17.784,5.216 C17.4586667,4.784 16.9466667,4.568 16.248,4.568 C15.4586667,4.568 14.872,4.812 14.488,5.3 C14.104,5.788 13.912,6.50133333 13.912,7.44 C13.912,8.31466667 14.104,8.992 14.488,9.472 C14.872,9.952 15.432,10.192 16.168,10.192 C16.6426667,10.192 17.052,10.0866667 17.396,9.876 C17.74,9.66533333 18.0053333,9.36 18.192,8.96 L20.096,9.536 C19.7653333,10.3146667 19.2546667,10.92 18.564,11.352 C17.8733333,11.784 17.112,12 16.28,12 Z M13.304,7.976 L13.304,6.52 L19.248,6.52 L19.248,7.976 L13.304,7.976 Z" id="e"></path>
                        <path d="M27.048,11.76 C26.4773333,11.8666667 25.9186667,11.9133333 25.372,11.9 C24.8253333,11.8866667 24.336,11.7853333 23.904,11.596 C23.472,11.4066667 23.144,11.1066667 22.92,10.696 C22.7226667,10.3226667 22.6186667,9.94133333 22.608,9.552 C22.5973333,9.16266667 22.592,8.72266667 22.592,8.232 L22.592,0.72 L24.512,0.72 L24.512,8.12 C24.512,8.46666667 24.516,8.77066667 24.524,9.032 C24.532,9.29333333 24.5866667,9.50666667 24.688,9.672 C24.88,9.992 25.1866667,10.1706667 25.608,10.208 C26.0293333,10.2453333 26.5093333,10.224 27.048,10.144 L27.048,11.76 Z M21.024,4.632 L21.024,3.12 L27.048,3.12 L27.048,4.632 L21.024,4.632 Z" id="t"></path>
                        <path d="M32.272,1.808 L32.272,0.04 L34.2,0.04 L34.2,1.808 L32.272,1.808 Z M32.272,11.76 L32.272,3.12 L34.2,3.12 L34.2,11.76 L32.272,11.76 Z" id="i"></path>
                        <path d="M42.576,11.76 L42.576,7.6 C42.576,7.328 42.5573333,7.02666667 42.52,6.696 C42.4826667,6.36533333 42.396,6.04666667 42.26,5.74 C42.124,5.43333333 41.9213333,5.18133333 41.652,4.984 C41.3826667,4.78666667 41.0186667,4.688 40.56,4.688 C40.3146667,4.688 40.072,4.728 39.832,4.808 C39.592,4.888 39.3746667,5.02533333 39.18,5.22 C38.9853333,5.41466667 38.8293333,5.68133333 38.712,6.02 C38.5946667,6.35866667 38.536,6.792 38.536,7.32 L37.392,6.832 C37.392,6.096 37.5346667,5.42933333 37.82,4.832 C38.1053333,4.23466667 38.5253333,3.75866667 39.08,3.404 C39.6346667,3.04933333 40.3173333,2.872 41.128,2.872 C41.768,2.872 42.296,2.97866667 42.712,3.192 C43.128,3.40533333 43.4586667,3.67733333 43.704,4.008 C43.9493333,4.33866667 44.1306667,4.69066667 44.248,5.064 C44.3653333,5.43733333 44.4413333,5.79066667 44.476,6.124 C44.5106667,6.45733333 44.528,6.728 44.528,6.936 L44.528,11.76 L42.576,11.76 Z M36.584,11.76 L36.584,3.12 L38.304,3.12 L38.304,5.8 L38.536,5.8 L38.536,11.76 L36.584,11.76 Z" id="n"></path>
                        <path d="M54.872,11.76 C54.3013333,11.8666667 53.7426667,11.9133333 53.196,11.9 C52.6493333,11.8866667 52.16,11.7853333 51.728,11.596 C51.296,11.4066667 50.968,11.1066667 50.744,10.696 C50.5466667,10.3226667 50.4426667,9.94133333 50.432,9.552 C50.4213333,9.16266667 50.416,8.72266667 50.416,8.232 L50.416,0.72 L52.336,0.72 L52.336,8.12 C52.336,8.46666667 52.34,8.77066667 52.348,9.032 C52.356,9.29333333 52.4106667,9.50666667 52.512,9.672 C52.704,9.992 53.0106667,10.1706667 53.432,10.208 C53.8533333,10.2453333 54.3333333,10.224 54.872,10.144 L54.872,11.76 Z M48.848,4.632 L48.848,3.12 L54.872,3.12 L54.872,4.632 L48.848,4.632 Z" id="t"></path>
                        <path d="M60.552,12 C59.688,12 58.9333333,11.8053333 58.288,11.416 C57.6426667,11.0266667 57.1426667,10.4893333 56.788,9.804 C56.4333333,9.11866667 56.256,8.33066667 56.256,7.44 C56.256,6.53333333 56.4373333,5.73866667 56.8,5.056 C57.1626667,4.37333333 57.6666667,3.84 58.312,3.456 C58.9573333,3.072 59.704,2.88 60.552,2.88 C61.4213333,2.88 62.1786667,3.07466667 62.824,3.464 C63.4693333,3.85333333 63.9706667,4.39066667 64.328,5.076 C64.6853333,5.76133333 64.864,6.54933333 64.864,7.44 C64.864,8.336 64.684,9.12666667 64.324,9.812 C63.964,10.4973333 63.4613333,11.0333333 62.816,11.42 C62.1706667,11.8066667 61.416,12 60.552,12 Z M60.552,10.192 C61.32,10.192 61.8906667,9.936 62.264,9.424 C62.6373333,8.912 62.824,8.25066667 62.824,7.44 C62.824,6.60266667 62.6346667,5.93466667 62.256,5.436 C61.8773333,4.93733333 61.3093333,4.688 60.552,4.688 C60.0346667,4.688 59.6093333,4.804 59.276,5.036 C58.9426667,5.268 58.696,5.59066667 58.536,6.004 C58.376,6.41733333 58.296,6.896 58.296,7.44 C58.296,8.27733333 58.4866667,8.94533333 58.868,9.444 C59.2493333,9.94266667 59.8106667,10.192 60.552,10.192 Z" id="o"></path>
                        <path d="M69.864,12.008 C69.224,12.008 68.696,11.9013333 68.28,11.688 C67.864,11.4746667 67.5333333,11.2026667 67.288,10.872 C67.0426667,10.5413333 66.8613333,10.1893333 66.744,9.816 C66.6266667,9.44266667 66.5506667,9.08933333 66.516,8.756 C66.4813333,8.42266667 66.464,8.152 66.464,7.944 L66.464,3.12 L68.416,3.12 L68.416,7.28 C68.416,7.54666667 68.4346667,7.84666667 68.472,8.18 C68.5093333,8.51333333 68.596,8.83333333 68.732,9.14 C68.868,9.44666667 69.0706667,9.69866667 69.34,9.896 C69.6093333,10.0933333 69.9733333,10.192 70.432,10.192 C70.6773333,10.192 70.92,10.152 71.16,10.072 C71.4,9.992 71.6173333,9.85466667 71.812,9.66 C72.0066667,9.46533333 72.1626667,9.19733333 72.28,8.856 C72.3973333,8.51466667 72.456,8.08266667 72.456,7.56 L73.6,8.048 C73.6,8.784 73.4573333,9.45066667 73.172,10.048 C72.8866667,10.6453333 72.4666667,11.1213333 71.912,11.476 C71.3573333,11.8306667 70.6746667,12.008 69.864,12.008 Z M72.688,11.76 L72.688,9.08 L72.456,9.08 L72.456,3.12 L74.392,3.12 L74.392,11.76 L72.688,11.76 Z" id="u"></path>
                        <path d="M80.384,12 C79.4933333,12 78.7333333,11.8013333 78.104,11.404 C77.4746667,11.0066667 76.9933333,10.464 76.66,9.776 C76.3266667,9.088 76.1573333,8.30933333 76.152,7.44 C76.1573333,6.55466667 76.332,5.76933333 76.676,5.084 C77.02,4.39866667 77.5093333,3.86 78.144,3.468 C78.7786667,3.076 79.5333333,2.88 80.408,2.88 C81.3893333,2.88 82.22,3.12666667 82.9,3.62 C83.58,4.11333333 84.024,4.78666667 84.232,5.64 L82.312,6.16 C82.1626667,5.696 81.9146667,5.33466667 81.568,5.076 C81.2213333,4.81733333 80.8266667,4.688 80.384,4.688 C79.8826667,4.688 79.4693333,4.80666667 79.144,5.044 C78.8186667,5.28133333 78.5786667,5.608 78.424,6.024 C78.2693333,6.44 78.192,6.912 78.192,7.44 C78.192,8.26133333 78.376,8.92533333 78.744,9.432 C79.112,9.93866667 79.6586667,10.192 80.384,10.192 C80.896,10.192 81.3,10.0746667 81.596,9.84 C81.892,9.60533333 82.1146667,9.26666667 82.264,8.824 L84.232,9.264 C83.9653333,10.144 83.4986667,10.82 82.832,11.292 C82.1653333,11.764 81.3493333,12 80.384,12 Z" id="c"></path>
                        <path d="M91.816,11.76 L91.816,7.6 C91.816,7.328 91.7973333,7.02666667 91.76,6.696 C91.7226667,6.36533333 91.636,6.04666667 91.5,5.74 C91.364,5.43333333 91.1613333,5.18133333 90.892,4.984 C90.6226667,4.78666667 90.2586667,4.688 89.8,4.688 C89.5546667,4.688 89.312,4.728 89.072,4.808 C88.832,4.888 88.6146667,5.02533333 88.42,5.22 C88.2253333,5.41466667 88.0693333,5.68133333 87.952,6.02 C87.8346667,6.35866667 87.776,6.792 87.776,7.32 L86.632,6.832 C86.632,6.096 86.7746667,5.42933333 87.06,4.832 C87.3453333,4.23466667 87.7653333,3.75866667 88.32,3.404 C88.8746667,3.04933333 89.5573333,2.872 90.368,2.872 C91.008,2.872 91.536,2.97866667 91.952,3.192 C92.368,3.40533333 92.6986667,3.67733333 92.944,4.008 C93.1893333,4.33866667 93.3706667,4.69066667 93.488,5.064 C93.6053333,5.43733333 93.6813333,5.79066667 93.716,6.124 C93.7506667,6.45733333 93.768,6.728 93.768,6.936 L93.768,11.76 L91.816,11.76 Z M85.824,11.76 L85.824,0.24 L87.544,0.24 L87.544,6.304 L87.776,6.304 L87.776,11.76 L85.824,11.76 Z" id="h"></path>
                    </g>
                </g>
                <g id="ONENIL_TYPE_FULL_WHITE" transform="translate(0.000000, 13.000000)" fill="#FFFFFF" fill-rule="nonzero">
                    <path d="M11.342723,0.681654027 C4.88064283,0.681654027 0,5.45323221 0,11.8062477 C0,18.1592633 4.88064283,22.9308415 11.342723,22.9308415 C17.8048032,22.9308415 22.685446,18.1592633 22.685446,11.8062477 C22.685446,5.45323221 17.8048032,0.681654027 11.342723,0.681654027 Z M11.342723,17.777537 C7.96171903,17.777537 5.39869989,15.2145179 5.39869989,11.8062477 C5.39869989,8.39797761 7.96171903,5.83495847 11.342723,5.83495847 C14.723727,5.83495847 17.25948,8.39797761 17.25948,11.8062477 C17.25948,15.2145179 14.723727,17.777537 11.342723,17.777537 Z" id="Shape"></path>
                    <path d="M49.3244854,0.681654027 L43.7076562,0.681654027 L43.7894547,12.4061033 L28.3022752,0 C28.3022752,0 28.3295414,20.149693 28.3295414,21.9219935 L28.3295414,22.9308415 L33.9191044,22.9308415 L33.9191044,11.0700614 L49.3517515,23.6124955 C49.3517515,23.6124955 49.3517515,5.23510293 49.3244854,1.66323583 L49.3244854,0.681654027 L49.3244854,0.681654027 Z" id="Path"></path>
                    <polygon id="Path" points="72.9369809 5.86222463 72.9369809 0.681654027 54.9958469 0.681654027 54.9958469 22.9035753 72.9369809 22.9035753 72.9369809 17.7502709 60.5036114 17.7502709 60.5036114 14.1784038 70.2921632 14.1784038 70.2921632 8.99783315 60.5036114 8.99783315 60.5036114 5.86222463"></polygon>
                    <polygon id="Path" points="117.489888 0.681654027 117.571687 15.4871795 100.775731 0.436258577 100.802997 22.9308415 104.074937 22.9308415 104.074937 7.90718671 120.81636 23.0944384 120.789094 0.681654027"></polygon>
                    <polygon id="Path" points="129.650596 0.681654027 129.596064 22.9308415 126.433189 22.9308415 126.487721 0.681654027"></polygon>
                    <polygon id="Path" points="138.457566 20.1224269 138.457566 0.681654027 135.294691 0.681654027 135.294691 22.9308415 151 22.9308415 151 20.1224269"></polygon>
                    <circle id="Oval" cx="86.842723" cy="20.4496208" r="2.4539545"></circle>
                    <circle id="Oval" cx="86.842723" cy="2.91747923" r="2.4539545"></circle>
                </g>
                <g id="Group" transform="translate(1298.000000, 20.000000)" fill="#FFFFFF">
                    <rect id="Rectangle" x="0" y="0" width="17" height="2"></rect>
                    <rect id="Rectangle" x="0" y="8" width="17" height="2"></rect>
                </g>
            </g>
        </g>
    </g>
</svg>